<?xml version="1.0" encoding="UTF-8"?>
<svg version="1.1" xmlns="http://www.w3.org/2000/svg" width="524" height="359" viewBox="0 0 524 359">
<path d="M0 0 C3.4861682 3.72741498 4.8333503 6.9292137 6.05615234 11.85620117 C6.22054495 12.51180873 6.38493755 13.16741629 6.55431175 13.84289074 C8.13662178 20.27704455 9.46092259 26.76503403 10.71131516 33.2710743 C11.1172274 35.38225559 11.52971864 37.49206715 11.9437561 39.60166931 C12.53533688 42.61718974 13.12492738 45.63308799 13.7130127 48.64929199 C21.44947544 88.26920094 30.00731244 127.42471325 42 166 C42.24441833 166.78743591 42.48883667 167.57487183 42.74066162 168.38616943 C46.12109252 179.26995971 49.54276912 190.14036772 53 201 C68.93635811 190.91820023 68.93635811 190.91820023 84.26171875 179.94140625 C87 178 87 178 89.95703125 176.52734375 C94.02144536 174.31286377 97.1232936 172.29256929 98.83447266 167.81787109 C100.1182081 163.08644132 100.93286471 158.28251831 101.77734375 153.45703125 C102.93758934 146.90020204 104.73915265 140.65373533 106.75 134.3125 C107.08781494 133.23718018 107.42562988 132.16186035 107.77368164 131.05395508 C109.58447297 125.33773416 111.44286787 119.63726741 113.3046875 113.9375 C121.05466989 90.17815669 128.86387504 66.19631098 129.59375 41.015625 C130.24469236 36.18362982 131.95845637 32.93992962 135.5625 29.6875 C140.52311081 26.25323098 145.08043577 26.40468972 151 27 C157.36895558 30.06653417 161.48816763 35.0186585 163.81640625 41.59765625 C164.40812048 43.41614858 164.9895102 45.23802124 165.5625 47.0625 C177.29524192 82.41780971 192.56660998 122.07269737 215 152 C215.61875 152.84949219 216.2375 153.69898438 216.875 154.57421875 C221.26293275 160.35107376 226.22237658 165.05300939 231.77734375 169.67578125 C234.21654733 172.22644229 234.90223332 173.49765253 235 177 C233.03497339 179.88203903 231.36162432 181.53720824 228.01171875 182.67578125 C220.62749017 183.97425129 214.70123983 181.45945578 208.6015625 177.40625 C198.59374977 169.76274254 189.13041866 160.39003861 182 150 C178.28336585 151.63995368 175.23426429 154.00670835 172.0625 156.5 C170.89592328 157.40766769 169.72925406 158.31521653 168.5625 159.22265625 C167.96953125 159.68559082 167.3765625 160.14852539 166.765625 160.62548828 C164.57103873 162.3339397 162.36407216 164.02582865 160.15600586 165.71679688 C155.07550477 169.60870824 150.02738281 173.53974706 145 177.5 C138.93547261 182.27482404 132.8456183 187.01394466 126.70703125 191.69335938 C124.94417321 193.0427324 123.19099288 194.40411163 121.4375 195.765625 C69.71148847 235.61291329 69.71148847 235.61291329 45 233 C36.17345562 230.29826428 29.64613411 222.32243975 25.26953125 214.49609375 C24.42668994 212.82168042 23.60902671 211.1344345 22.8125 209.4375 C22.35963623 208.48061279 21.90677246 207.52372559 21.44018555 206.5378418 C14.42425929 191.01574422 9.65736971 174.53584275 4.69335938 158.27142334 C4.06865686 156.22491769 3.43935069 154.17989936 2.80859375 152.13525391 C-8.20228563 116.15182199 -15.59072672 79.10285511 -23.44189453 42.33325195 C-23.59095654 41.63516198 -23.74001856 40.93707201 -23.8935976 40.2178278 C-24.59979048 36.90911804 -25.30456268 33.60011812 -26.0075531 30.29072571 C-26.2558638 29.12373642 -26.5041745 27.95674713 -26.76000977 26.75439453 C-27.08449852 25.22566208 -27.08449852 25.22566208 -27.4155426 23.66604614 C-27.77112108 22.0440483 -28.14736875 20.4261659 -28.56040955 18.81784058 C-29.65029359 14.31083772 -29.56343628 9.5763547 -29 5 C-25.84088157 0.61233552 -22.44486601 -1.44434863 -17.25 -2.625 C-10.6824343 -3.38279604 -5.76463286 -3.79941711 0 0 Z M150 93 C148.58944363 97.12647901 147.33914152 101.2647575 146.1953125 105.47265625 C145.69064453 107.31827148 145.69064453 107.31827148 145.17578125 109.20117188 C144.48226508 111.74782775 143.79001142 114.29482491 143.09765625 116.84179688 C141.11521158 124.08940355 139.00857857 131.25911077 136.63232422 138.38842773 C135.73435412 141.08738804 135.73435412 141.08738804 137 144 C140.97608888 141.64505182 144.94509644 139.27874942 148.90795898 136.90161133 C150.25730525 136.09440587 151.6085394 135.29034763 152.96166992 134.48950195 C154.90527038 133.33845145 156.84182163 132.17628872 158.77734375 131.01171875 C159.38464828 130.65534836 159.99195282 130.29897797 160.61766052 129.93180847 C164.24307825 127.77852361 164.24307825 127.77852361 166 124 C164.85443667 120.99528975 164.85443667 120.99528975 163.10546875 117.6875 C162.79805252 117.07737061 162.49063629 116.46724121 162.17390442 115.83862305 C161.18769013 113.88756035 160.18759597 111.94397708 159.1875 110 C158.52451955 108.69054483 157.8623997 107.38065356 157.20117188 106.0703125 C153.85835455 99.38831906 153.85835455 99.38831906 150 93 Z " fill="#EDB086" transform="translate(134,28)"/>
<path d="M0 0 C1.49835388 -0.00285507 1.49835388 -0.00285507 3.02697754 -0.00576782 C50.58905467 0.00452191 50.58905467 0.00452191 65.125 8.375 C66.125 10.375 66.125 10.375 66.125 12.375 C64.125 15.375 64.125 15.375 61.125 16.375 C58.53714876 16.43672958 55.97707292 16.44273002 53.390625 16.40234375 C51.78402252 16.38764077 50.17741397 16.37359016 48.57080078 16.36010742 C47.3009433 16.34758438 47.3009433 16.34758438 46.00543213 16.33480835 C21.70358193 16.12870755 -2.25035641 17.15729511 -26.3125 20.75 C-26.98206726 20.84896576 -27.65163452 20.94793152 -28.3414917 21.04989624 C-37.15911396 22.37552726 -45.72399876 24.22525749 -54.33618164 26.49462891 C-57.51362489 27.28509875 -60.64434808 27.85973704 -63.875 28.375 C-103.13162299 36.9542865 -141.41258873 51.40634255 -177.3125 69.3125 C-178.03383118 69.67153412 -178.75516235 70.03056824 -179.49835205 70.40048218 C-192.32246974 76.44058229 -192.32246974 76.44058229 -203.45751953 84.97949219 C-205.36108498 86.85355007 -207.38995786 87.43239781 -209.875 88.375 C-216.86404453 92.29803881 -223.28867304 97.09375081 -229.75 101.8125 C-256.12931601 120.97934029 -279.33815688 126.17394146 -311.328125 121.2265625 C-314.98405969 120.60219505 -318.39406427 119.6831948 -321.875 118.375 C-323 113.625 -323 113.625 -321.875 111.375 C-324.845 112.365 -327.815 113.355 -330.875 114.375 C-331.865 113.385 -332.855 112.395 -333.875 111.375 C-332 105.5 -332 105.5 -330.875 104.375 C-331.8340625 104.00375 -331.8340625 104.00375 -332.8125 103.625 C-334.875 102.375 -334.875 102.375 -335.69140625 100.5625 C-335.95095245 97.47003468 -334.83843113 96.47773213 -332.875 94.125 C-332.21757812 93.33480469 -331.56015625 92.54460937 -330.8828125 91.73046875 C-330.22023438 90.95316406 -329.55765625 90.17585938 -328.875 89.375 C-328.35679687 88.71113281 -327.83859375 88.04726563 -327.3046875 87.36328125 C-319.12480265 77.23091133 -307.63471289 69.7478189 -295.875 64.375 C-295.215 64.375 -294.555 64.375 -293.875 64.375 C-293.875 63.715 -293.875 63.055 -293.875 62.375 C-291.64655786 61.7266711 -289.4172154 61.08143631 -287.1875 60.4375 C-285.94613281 60.07785156 -284.70476562 59.71820313 -283.42578125 59.34765625 C-277.69136257 57.77684189 -272.71866627 57.30363494 -266.77734375 57.5234375 C-242.40345852 58.37654541 -242.40345852 58.37654541 -219.30175781 51.48828125 C-215.42590594 49.71022445 -211.44761753 48.20373009 -207.47241211 46.66381836 C-205.40816482 45.86271242 -203.34877701 45.0489385 -201.29516602 44.22094727 C-200.37147217 43.85026123 -199.44777832 43.4795752 -198.49609375 43.09765625 C-197.6755249 42.76515869 -196.85495605 42.43266113 -196.00952148 42.09008789 C-193.875 41.375 -193.875 41.375 -190.875 41.375 C-190.875 40.715 -190.875 40.055 -190.875 39.375 C-190.13121094 39.1790625 -189.38742188 38.983125 -188.62109375 38.78125 C-181.00465357 36.69504679 -173.56885759 34.26112825 -166.125 31.625 C-131.66254726 19.52570071 -96.05869932 9.66495632 -59.875 4.375 C-58.61703613 4.18180176 -57.35907227 3.98860352 -56.06298828 3.78955078 C-37.37978173 0.95856525 -18.89242959 0.0038532 0 0 Z " fill="#474035" transform="translate(420.875,209.625)"/>
<path d="M0 0 C5.76601303 4.11858074 7.67148997 10.22052255 9.7265625 16.69140625 C10.29934933 18.4334443 10.8726936 20.17530014 11.4465332 21.91699219 C11.74081207 22.81977905 12.03509094 23.72256592 12.33828735 24.65270996 C19.72884806 47.22688386 27.25026641 69.5037266 43.625 87.3125 C45.79806277 89.71857183 46.66848729 90.99401786 47.8125 94.125 C47.625 96.875 47.625 96.875 46.125 99.0625 C40.23230703 103.3347024 34.83706625 104.95196963 27.625 103.875 C18.07718425 101.03949096 11.98642783 94.9983755 6.625 86.875 C6.22410156 87.69742188 5.82320313 88.51984375 5.41015625 89.3671875 C-2.12564997 104.165392 -11.6069306 114.07819348 -27.32421875 119.89453125 C-41.0972061 124.32093307 -55.30805709 122.60968121 -68 116.125 C-85.47321842 106.03863375 -94.22748716 88.28886772 -99.6875 69.5 C-103.52224933 53.96350485 -107.14522818 31.60144153 -99.6875 16.75 C-96.35982335 12.61288849 -93.01785936 10.66785781 -87.875 9.125 C-81.43023 8.480523 -76.10631401 8.71031792 -70.375 11.875 C-66.32116598 16.13672295 -65.24480904 18.6352815 -65.3828125 24.4140625 C-65.73274191 45.12929283 -65.49245205 67.07196582 -51.375 83.875 C-46.63405087 88.18495375 -41.64874433 89.13771961 -35.375 88.875 C-29.906424 86.73512244 -26.92912115 82.23927457 -24.25 77.1875 C-16.83781545 59.33354752 -20.75041099 37.47365656 -25.47265625 19.44140625 C-27.92630245 9.74366176 -27.92630245 9.74366176 -25.8125 6.1875 C-23.25317888 2.17583057 -20.00321637 0.64928781 -15.4921875 -0.6796875 C-10.25006195 -1.78227479 -5.07309877 -1.69103292 0 0 Z " fill="#DF6B47" transform="translate(114.375,154.125)"/>
<path d="M0 0 C11.66182355 7.88487235 18.79669873 25.0175692 24.33984375 37.58203125 C24.33984375 38.24203125 24.33984375 38.90203125 24.33984375 39.58203125 C24.99984375 39.58203125 25.65984375 39.58203125 26.33984375 39.58203125 C26.45199219 38.87691406 26.56414062 38.17179687 26.6796875 37.4453125 C28.98339404 27.45349654 34.90642422 19.05802091 43.265625 13.2421875 C49.11921851 9.72000382 54.61588654 8.84313485 61.33984375 9.58203125 C80.1782292 14.55368782 93.73732269 31.92719543 104.97460938 46.80224609 C106.84167403 49.23624132 108.7790968 51.60980594 110.71606445 53.98828125 C115.76215243 60.19581609 120.58723882 66.53870761 125.27734375 73.01953125 C125.8089209 73.75268555 126.34049805 74.48583984 126.88818359 75.24121094 C136.08135448 88.05981665 136.08135448 88.05981665 136.90234375 92.89453125 C136.33984375 95.58203125 136.33984375 95.58203125 134.77734375 97.45703125 C131.11308553 99.14822735 129.38989484 99.28918303 125.33984375 98.58203125 C114.9192178 92.6844684 106.75356172 83.51637761 99.05078125 74.51171875 C97.22184512 72.44894604 95.30403917 70.51612405 93.33984375 68.58203125 C90.8427441 66.1229103 88.47926233 63.63109339 86.21484375 60.95703125 C82.72600396 56.9028702 78.98908208 53.11798779 75.21484375 49.33203125 C74.61655762 48.7292334 74.01827148 48.12643555 73.40185547 47.50537109 C68.65037405 42.71281346 68.65037405 42.71281346 63.33984375 38.58203125 C60.11546373 39.27330914 60.11546373 39.27330914 58.9453125 42.21484375 C58.24341797 43.94347656 58.24341797 43.94347656 57.52734375 45.70703125 C57.27162598 46.32578125 57.0159082 46.94453125 56.75244141 47.58203125 C55.38160276 50.91826898 54.06634035 54.27564598 52.7578125 57.63671875 C52.49911377 58.29655762 52.24041504 58.95639648 51.97387695 59.63623047 C51.25087716 61.4896587 50.54110024 63.34822892 49.83203125 65.20703125 C47.17732994 71.21138185 44.35626216 75.6852372 38.33984375 78.58203125 C31.18969678 79.63387105 25.2776726 78.47657078 19.37890625 74.140625 C10.82670604 67.07932559 5.09540305 57.9413754 -0.66015625 48.58203125 C1.45341911 56.40226009 3.89246385 63.19594216 8.265625 70.046875 C9.66873044 73.35820385 9.44911517 75.18813274 8.33984375 78.58203125 C4.29188142 81.65812597 -0.83742938 81.23936131 -5.66015625 80.58203125 C-15.50497087 77.43695674 -21.03670865 70.92409705 -25.84765625 62.08203125 C-33.35670848 46.12027584 -36.59058764 26.1374196 -30.84375 9.171875 C-28.31866561 3.51948944 -24.72893841 0.32377247 -19.34765625 -2.73046875 C-12.10876814 -4.58227734 -6.52212515 -3.64796831 0 0 Z " fill="#6C764B" transform="translate(375.66015625,113.41796875)"/>
<path d="M0 0 C3.4861682 3.72741498 4.8333503 6.9292137 6.05615234 11.85620117 C6.22054495 12.51180873 6.38493755 13.16741629 6.55431175 13.84289074 C8.13662178 20.27704455 9.46092259 26.76503403 10.71131516 33.2710743 C11.1172274 35.38225559 11.52971864 37.49206715 11.9437561 39.60166931 C12.53533688 42.61718974 13.12492738 45.63308799 13.7130127 48.64929199 C21.44947544 88.26920094 30.00731244 127.42471325 42 166 C42.24441833 166.78743591 42.48883667 167.57487183 42.74066162 168.38616943 C46.12109252 179.26995971 49.54276912 190.14036772 53 201 C68.93635811 190.91820023 68.93635811 190.91820023 84.26171875 179.94140625 C87 178 87 178 89.95703125 176.52734375 C94.02144536 174.31286377 97.1232936 172.29256929 98.83447266 167.81787109 C100.1182081 163.08644132 100.93286471 158.28251831 101.77734375 153.45703125 C102.93758934 146.90020204 104.73915265 140.65373533 106.75 134.3125 C107.08781494 133.23718018 107.42562988 132.16186035 107.77368164 131.05395508 C109.58447297 125.33773416 111.44286787 119.63726741 113.3046875 113.9375 C121.05466989 90.17815669 128.86387504 66.19631098 129.59375 41.015625 C130.24469236 36.18362982 131.95845637 32.93992962 135.5625 29.6875 C140.52311081 26.25323098 145.08043577 26.40468972 151 27 C157.36895558 30.06653417 161.48816763 35.0186585 163.81640625 41.59765625 C164.40812048 43.41614858 164.9895102 45.23802124 165.5625 47.0625 C177.29524192 82.41780971 192.56660998 122.07269737 215 152 C215.61875 152.84949219 216.2375 153.69898438 216.875 154.57421875 C221.26293275 160.35107376 226.22237658 165.05300939 231.77734375 169.67578125 C234.21654733 172.22644229 234.90223332 173.49765253 235 177 C233.03497339 179.88203903 231.36162432 181.53720824 228.01171875 182.67578125 C220.62749017 183.97425129 214.70123983 181.45945578 208.6015625 177.40625 C198.59374977 169.76274254 189.13041866 160.39003861 182 150 C178.28336585 151.63995368 175.23426429 154.00670835 172.0625 156.5 C170.89592328 157.40766769 169.72925406 158.31521653 168.5625 159.22265625 C167.96953125 159.68559082 167.3765625 160.14852539 166.765625 160.62548828 C164.57103873 162.3339397 162.36407216 164.02582865 160.15600586 165.71679688 C155.07550477 169.60870824 150.02738281 173.53974706 145 177.5 C138.93547261 182.27482404 132.8456183 187.01394466 126.70703125 191.69335938 C124.94417321 193.0427324 123.19099288 194.40411163 121.4375 195.765625 C69.71148847 235.61291329 69.71148847 235.61291329 45 233 C36.17345562 230.29826428 29.64613411 222.32243975 25.26953125 214.49609375 C24.42668994 212.82168042 23.60902671 211.1344345 22.8125 209.4375 C22.35963623 208.48061279 21.90677246 207.52372559 21.44018555 206.5378418 C14.42425929 191.01574422 9.65736971 174.53584275 4.69335938 158.27142334 C4.06865686 156.22491769 3.43935069 154.17989936 2.80859375 152.13525391 C-8.20228563 116.15182199 -15.59072672 79.10285511 -23.44189453 42.33325195 C-23.59095654 41.63516198 -23.74001856 40.93707201 -23.8935976 40.2178278 C-24.59979048 36.90911804 -25.30456268 33.60011812 -26.0075531 30.29072571 C-26.2558638 29.12373642 -26.5041745 27.95674713 -26.76000977 26.75439453 C-27.08449852 25.22566208 -27.08449852 25.22566208 -27.4155426 23.66604614 C-27.77112108 22.0440483 -28.14736875 20.4261659 -28.56040955 18.81784058 C-29.65029359 14.31083772 -29.56343628 9.5763547 -29 5 C-25.84088157 0.61233552 -22.44486601 -1.44434863 -17.25 -2.625 C-10.6824343 -3.38279604 -5.76463286 -3.79941711 0 0 Z M-23 7 C-24.23683892 9.81099755 -25 11.93339618 -25 15 C-24.34 15.66 -23.68 16.32 -23 17 C-23 18.66666667 -23 20.33333333 -23 22 C-22.3453982 23.6714421 -21.67725892 25.33760938 -21 27 C-20.00471473 30.63828123 -19.20337862 34.32045775 -18.375 38 C-18.14554688 38.98484375 -17.91609375 39.9696875 -17.6796875 40.984375 C-17.463125 41.93828125 -17.2465625 42.8921875 -17.0234375 43.875 C-16.82669434 44.73867187 -16.62995117 45.60234375 -16.42724609 46.4921875 C-15.99224846 49.0454993 -15.98926791 51.41598009 -16 54 C-15.36515933 56.01032877 -14.69313848 58.00901947 -14 60 C-13.22067586 63.00525989 -12.54633871 66.03153003 -11.875 69.0625 C-11.69324219 69.85205078 -11.51148438 70.64160156 -11.32421875 71.45507812 C-10.44714843 75.38870555 -9.83301597 78.94684218 -10 83 C-9.70955086 84.34332728 -9.39044206 85.68225804 -9 87 C-8.34 87 -7.68 87 -7 87 C-6.67 91.29 -6.34 95.58 -6 100 C-5.34 100 -4.68 100 -4 100 C-3.9071875 101.20011719 -3.814375 102.40023437 -3.71875 103.63671875 C-2.98995391 110.18946808 -1.20760387 116.45870486 0.5 122.8125 C0.82097656 124.02615234 1.14195312 125.23980469 1.47265625 126.49023438 C2.06540133 128.73100918 2.66079415 130.97108658 3.25976562 133.21020508 C3.69481315 134.84981196 4.12076019 136.49196726 4.52514648 138.1394043 C5.56141965 142.19978363 6.96257868 146.17544589 8.27148438 150.15625 C9.3854959 153.63794199 10 156.30763688 10 160 C10.66 160 11.32 160 12 160 C12.10304443 160.60295898 12.20608887 161.20591797 12.31225586 161.82714844 C13.48845469 168.23110342 15.3018686 174.15328687 17.5625 180.25 C21.34544368 190.51248672 21.34544368 190.51248672 22 196 C22.66 196 23.32 196 24 196 C24.15855469 196.53367188 24.31710938 197.06734375 24.48046875 197.6171875 C28.04409859 208.99717672 33.16632862 220.98129368 44 227 C54.4079128 230.46930427 65.79006916 226.67754266 75.23046875 221.96484375 C91.89634471 213.18362064 107.08192841 201.89154678 122.02636719 190.49707031 C124.06336491 188.95193548 126.11171759 187.42311851 128.1640625 185.8984375 C135.01175361 180.80839532 141.74626268 175.64277181 148.31640625 170.1953125 C152.82845307 166.5042349 157.46954937 162.98143794 162.10498047 159.44775391 C164.25218516 157.807336 166.39380734 156.15977262 168.53515625 154.51171875 C170.08588586 153.32024528 171.6366666 152.12883837 173.1875 150.9375 C173.93080566 150.36483398 174.67411133 149.79216797 175.43994141 149.20214844 C176.13394043 148.67008789 176.82793945 148.13802734 177.54296875 147.58984375 C178.16196045 147.11409912 178.78095215 146.63835449 179.41870117 146.14819336 C181 145 181 145 183 144 C183.26167969 144.56847656 183.52335938 145.13695312 183.79296875 145.72265625 C190.6791884 158.71510303 205.89844313 174.29948104 220 179 C221.95586747 179.19459037 221.95586747 179.19459037 224 179.1875 C224.680625 179.20167969 225.36125 179.21585938 226.0625 179.23046875 C228.32614132 179.10940411 228.32614132 179.10940411 231 177 C230.44291667 173.38288149 229.27138983 172.05853793 226.4375 169.8125 C193.44033107 141.9053199 175.41402304 87.21315861 161.66113281 47.125 C161.44175552 46.49078629 161.22237823 45.85657257 160.99635315 45.20314026 C160.39300836 43.44898578 159.80003757 41.69127296 159.20776367 39.93334961 C157.76179476 36.42146029 156.19076506 34.0598857 153.09375 31.859375 C148.78855339 30.09231669 144.52482231 30.16206994 140 31 C136.99802536 32.80118478 135.54833634 33.90332732 134 37 C133.76733107 38.78299999 133.58267847 40.57236918 133.421875 42.36328125 C130.81937807 69.48549807 123.3908647 94.1792252 115.05917358 120.02474976 C114.18781029 122.73381601 113.32342565 125.4450761 112.46075439 128.15692139 C112.0290653 129.50913535 111.59445876 130.86042143 111.15692139 132.21075439 C108.52307598 140.3535928 106.48193447 148.3763865 105.03710938 156.82861328 C103.29663618 166.57838127 101.59642467 173.34457136 93.3125 179.3125 C91.05055354 180.80276442 88.76191586 182.20324885 86.41894531 183.5625 C83.0336437 185.57427391 79.84780676 187.8393154 76.62792969 190.10327148 C73.49414503 192.29811206 70.31908698 194.42824146 67.14160156 196.55908203 C65.17731027 197.88070164 63.22351032 199.21612145 61.2734375 200.55859375 C60.21382813 201.28175781 59.15421875 202.00492188 58.0625 202.75 C57.16660156 203.36359375 56.27070313 203.9771875 55.34765625 204.609375 C53.17330075 205.89734598 51.47123526 206.56423694 49 207 C48.87238281 206.31421875 48.74476563 205.6284375 48.61328125 204.921875 C47.92768339 201.65545973 47.08413137 198.46501288 46.1875 195.25 C45.87167969 194.10015625 45.55585938 192.9503125 45.23046875 191.765625 C44.33209641 189.01632045 43.41279256 186.68511175 42.18359375 184.10546875 C39.28608592 177.75456335 37.47061591 171.03426934 35.53564453 164.34399414 C34.8767974 162.06870722 34.20673835 159.79694716 33.53515625 157.52539062 C31.51423189 150.63082145 29.56635023 143.79966323 28.46142578 136.68530273 C28.30915527 136.12915283 28.15688477 135.57300293 28 135 C27.34 134.67 26.68 134.34 26 134 C25.7898499 131.96854904 25.58550572 129.93640564 25.40234375 127.90234375 C24.65278224 122.49531265 23.01229528 117.27997337 21.55712891 112.02783203 C19.36001122 104.03078581 17.19825942 96.03879483 16.0625 87.8125 C15.30771092 82.43137441 14.12884181 77.26278314 12.8125 72 C10.25041839 61.65422982 8.22998921 51.21918494 6.25 40.75 C6.09552399 39.93950195 5.94104797 39.12900391 5.78189087 38.29394531 C2.97663292 23.53874794 2.97663292 23.53874794 2.4140625 17.69921875 C2.04560178 14.4074046 1.51318747 12.03795609 0.125 9.0625 C-0.20242187 8.33160156 -0.52984375 7.60070312 -0.8671875 6.84765625 C-2.0135494 4.68806212 -2.0135494 4.68806212 -5 3 C-11.7443525 2.16303851 -17.94581527 1.94581527 -23 7 Z " fill="#E16F4A" transform="translate(134,28)"/>
<path d="M0 0 C1.49835388 -0.00285507 1.49835388 -0.00285507 3.02697754 -0.00576782 C50.58905467 0.00452191 50.58905467 0.00452191 65.125 8.375 C66.125 10.375 66.125 10.375 66.125 12.375 C64.125 15.375 64.125 15.375 61.125 16.375 C58.53714876 16.43672958 55.97707292 16.44273002 53.390625 16.40234375 C51.78402252 16.38764077 50.17741397 16.37359016 48.57080078 16.36010742 C47.3009433 16.34758438 47.3009433 16.34758438 46.00543213 16.33480835 C21.70358193 16.12870755 -2.25035641 17.15729511 -26.3125 20.75 C-26.98206726 20.84896576 -27.65163452 20.94793152 -28.3414917 21.04989624 C-37.15911396 22.37552726 -45.72399876 24.22525749 -54.33618164 26.49462891 C-57.51362489 27.28509875 -60.64434808 27.85973704 -63.875 28.375 C-103.13162299 36.9542865 -141.41258873 51.40634255 -177.3125 69.3125 C-178.03383118 69.67153412 -178.75516235 70.03056824 -179.49835205 70.40048218 C-192.32246974 76.44058229 -192.32246974 76.44058229 -203.45751953 84.97949219 C-205.36108498 86.85355007 -207.38995786 87.43239781 -209.875 88.375 C-216.86404453 92.29803881 -223.28867304 97.09375081 -229.75 101.8125 C-256.12931601 120.97934029 -279.33815688 126.17394146 -311.328125 121.2265625 C-314.98405969 120.60219505 -318.39406427 119.6831948 -321.875 118.375 C-323 113.625 -323 113.625 -321.875 111.375 C-324.845 112.365 -327.815 113.355 -330.875 114.375 C-331.865 113.385 -332.855 112.395 -333.875 111.375 C-332 105.5 -332 105.5 -330.875 104.375 C-331.8340625 104.00375 -331.8340625 104.00375 -332.8125 103.625 C-334.875 102.375 -334.875 102.375 -335.69140625 100.5625 C-335.95095245 97.47003468 -334.83843113 96.47773213 -332.875 94.125 C-332.21757812 93.33480469 -331.56015625 92.54460937 -330.8828125 91.73046875 C-330.22023438 90.95316406 -329.55765625 90.17585938 -328.875 89.375 C-328.35679687 88.71113281 -327.83859375 88.04726563 -327.3046875 87.36328125 C-319.12480265 77.23091133 -307.63471289 69.7478189 -295.875 64.375 C-295.215 64.375 -294.555 64.375 -293.875 64.375 C-293.875 63.715 -293.875 63.055 -293.875 62.375 C-291.64655786 61.7266711 -289.4172154 61.08143631 -287.1875 60.4375 C-285.94613281 60.07785156 -284.70476562 59.71820313 -283.42578125 59.34765625 C-277.69136257 57.77684189 -272.71866627 57.30363494 -266.77734375 57.5234375 C-242.40345852 58.37654541 -242.40345852 58.37654541 -219.30175781 51.48828125 C-215.42590594 49.71022445 -211.44761753 48.20373009 -207.47241211 46.66381836 C-205.40816482 45.86271242 -203.34877701 45.0489385 -201.29516602 44.22094727 C-200.37147217 43.85026123 -199.44777832 43.4795752 -198.49609375 43.09765625 C-197.6755249 42.76515869 -196.85495605 42.43266113 -196.00952148 42.09008789 C-193.875 41.375 -193.875 41.375 -190.875 41.375 C-190.875 40.715 -190.875 40.055 -190.875 39.375 C-190.13121094 39.1790625 -189.38742188 38.983125 -188.62109375 38.78125 C-181.00465357 36.69504679 -173.56885759 34.26112825 -166.125 31.625 C-131.66254726 19.52570071 -96.05869932 9.66495632 -59.875 4.375 C-58.61703613 4.18180176 -57.35907227 3.98860352 -56.06298828 3.78955078 C-37.37978173 0.95856525 -18.89242959 0.0038532 0 0 Z M-39.875 5.375 C-41.7916748 5.61694092 -41.7916748 5.61694092 -43.74707031 5.86376953 C-67.42148696 8.8799966 -91.07316713 12.54740478 -113.953125 19.51953125 C-116.97087049 20.40306903 -119.98889519 21.08863976 -123.0625 21.75 C-131.8363651 23.71637171 -140.34192936 26.56592472 -148.875 29.375 C-150.49801025 29.90685913 -150.49801025 29.90685913 -152.15380859 30.44946289 C-162.40742532 33.8350392 -172.58601156 37.41750997 -182.75 41.0625 C-183.59962311 41.36636627 -184.44924622 41.67023254 -185.32461548 41.98330688 C-196.96436395 46.15177688 -208.5195697 50.45280083 -219.91162109 55.26635742 C-233.83309622 61.0562477 -245.91245582 61.6920297 -260.74536133 61.23803711 C-274.78140135 60.84307441 -286.15293048 62.79023897 -298.625 69.6875 C-299.34743896 70.07921387 -300.06987793 70.47092773 -300.81420898 70.87451172 C-306.26918666 73.89555988 -311.17678653 77.26406322 -315.875 81.375 C-316.5453125 81.91511719 -317.215625 82.45523438 -317.90625 83.01171875 C-323.36538223 87.51550284 -327.61538193 92.74460058 -331.875 98.375 C-329.06318944 99.67696075 -329.06318944 99.67696075 -327.13256836 98.64990234 C-326.49971924 98.25754395 -325.86687012 97.86518555 -325.21484375 97.4609375 C-324.15475098 96.81705078 -324.15475098 96.81705078 -323.07324219 96.16015625 C-322.32719727 95.69480469 -321.58115234 95.22945313 -320.8125 94.75 C-319.27617168 93.81794784 -317.73841635 92.88824365 -316.19921875 91.9609375 C-315.45591309 91.51202148 -314.71260742 91.06310547 -313.94677734 90.60058594 C-306.67720963 86.30018175 -299.29169485 82.54942254 -290.875 81.375 C-294.84244664 85.81289485 -298.99553886 88.28051724 -304.25 91 C-310.63322898 94.42047692 -316.65870768 98.0896789 -322.5 102.375 C-323.46752197 103.07810303 -323.46752197 103.07810303 -324.45458984 103.79541016 C-325.97114248 104.933347 -327.43004435 106.14742706 -328.875 107.375 C-328.875 108.035 -328.875 108.695 -328.875 109.375 C-323.15659264 108.73544128 -318.18377595 106.71757991 -312.875 104.625 C-310.99769122 103.90027604 -309.12008612 103.1763192 -307.2421875 102.453125 C-304.70959665 101.47294003 -302.17719657 100.49227821 -299.64550781 99.50976562 C-297.76812701 98.7865049 -295.8842819 98.08008613 -294 97.375 C-292.45699219 96.7871875 -292.45699219 96.7871875 -290.8828125 96.1875 C-287.44617004 95.25916022 -284.4190055 95.23288449 -280.875 95.375 C-281.89656142 98.78020472 -283.05401735 99.47916322 -286.19140625 101.3046875 C-287.59975992 101.96821447 -289.01572016 102.61575228 -290.4375 103.25 C-291.18459229 103.59369629 -291.93168457 103.93739258 -292.70141602 104.29150391 C-298.84512768 107.05697621 -305.11557254 109.37443087 -311.51586914 111.47216797 C-315.56247986 112.78438006 -315.56247986 112.78438006 -318.875 115.375 C-308.26887896 119.13836679 -297.42082979 119.71938022 -286.25 119.6875 C-284.54457031 119.71166992 -284.54457031 119.71166992 -282.8046875 119.73632812 C-275.356317 119.74059898 -268.92970993 118.7508303 -261.875 116.375 C-260.70710938 115.98441406 -259.53921875 115.59382813 -258.3359375 115.19140625 C-248.09237064 111.02914681 -239.70268378 104.93568525 -230.875 98.375 C-220.54500447 90.76618417 -209.90886495 83.92313481 -198.875 77.375 C-197.7715625 76.70984375 -196.668125 76.0446875 -195.53125 75.359375 C-175.03982207 63.28769221 -153.42941623 53.18772014 -130.93139648 45.50219727 C-127.23477633 44.23743068 -123.60315778 42.87662353 -119.984375 41.40234375 C-69.05079361 20.83963919 -14.6365811 13.8387347 39.8125 12.8125 C41.99024001 12.7691627 44.16797446 12.72554447 46.34570312 12.68164062 C51.60540917 12.57620072 56.86517241 12.47418169 62.125 12.375 C62.125 11.715 62.125 11.055 62.125 10.375 C54.5372681 7.80579055 47.06869056 6.34589551 39.125 5.375 C38.40989258 5.28331543 37.69478516 5.19163086 36.95800781 5.09716797 C11.70190452 1.96269568 -14.65233757 2.09723435 -39.875 5.375 Z " fill="#DB6B49" transform="translate(420.875,209.625)"/>
<path d="M0 0 C11.66182355 7.88487235 18.79669873 25.0175692 24.33984375 37.58203125 C24.33984375 38.24203125 24.33984375 38.90203125 24.33984375 39.58203125 C24.99984375 39.58203125 25.65984375 39.58203125 26.33984375 39.58203125 C26.45199219 38.87691406 26.56414062 38.17179687 26.6796875 37.4453125 C28.98339404 27.45349654 34.90642422 19.05802091 43.265625 13.2421875 C49.11921851 9.72000382 54.61588654 8.84313485 61.33984375 9.58203125 C80.1782292 14.55368782 93.73732269 31.92719543 104.97460938 46.80224609 C106.84167403 49.23624132 108.7790968 51.60980594 110.71606445 53.98828125 C115.76215243 60.19581609 120.58723882 66.53870761 125.27734375 73.01953125 C125.8089209 73.75268555 126.34049805 74.48583984 126.88818359 75.24121094 C136.08135448 88.05981665 136.08135448 88.05981665 136.90234375 92.89453125 C136.33984375 95.58203125 136.33984375 95.58203125 134.77734375 97.45703125 C131.11308553 99.14822735 129.38989484 99.28918303 125.33984375 98.58203125 C114.9192178 92.6844684 106.75356172 83.51637761 99.05078125 74.51171875 C97.22184512 72.44894604 95.30403917 70.51612405 93.33984375 68.58203125 C90.8427441 66.1229103 88.47926233 63.63109339 86.21484375 60.95703125 C82.72600396 56.9028702 78.98908208 53.11798779 75.21484375 49.33203125 C74.61655762 48.7292334 74.01827148 48.12643555 73.40185547 47.50537109 C68.65037405 42.71281346 68.65037405 42.71281346 63.33984375 38.58203125 C60.11546373 39.27330914 60.11546373 39.27330914 58.9453125 42.21484375 C58.24341797 43.94347656 58.24341797 43.94347656 57.52734375 45.70703125 C57.27162598 46.32578125 57.0159082 46.94453125 56.75244141 47.58203125 C55.38160276 50.91826898 54.06634035 54.27564598 52.7578125 57.63671875 C52.49911377 58.29655762 52.24041504 58.95639648 51.97387695 59.63623047 C51.25087716 61.4896587 50.54110024 63.34822892 49.83203125 65.20703125 C47.17732994 71.21138185 44.35626216 75.6852372 38.33984375 78.58203125 C31.18969678 79.63387105 25.2776726 78.47657078 19.37890625 74.140625 C10.82670604 67.07932559 5.09540305 57.9413754 -0.66015625 48.58203125 C1.45341911 56.40226009 3.89246385 63.19594216 8.265625 70.046875 C9.66873044 73.35820385 9.44911517 75.18813274 8.33984375 78.58203125 C4.29188142 81.65812597 -0.83742938 81.23936131 -5.66015625 80.58203125 C-15.50497087 77.43695674 -21.03670865 70.92409705 -25.84765625 62.08203125 C-33.35670848 46.12027584 -36.59058764 26.1374196 -30.84375 9.171875 C-28.31866561 3.51948944 -24.72893841 0.32377247 -19.34765625 -2.73046875 C-12.10876814 -4.58227734 -6.52212515 -3.64796831 0 0 Z M-24.328125 4.77734375 C-31.58625605 14.61094065 -30.26228159 29.65571636 -28.83618164 41.27490234 C-26.97946126 53.55216539 -21.90017231 65.16631341 -12.53515625 73.51953125 C-8.48987337 76.42158201 -5.44786869 76.72169606 -0.53515625 76.70703125 C0.33367187 76.70960938 1.2025 76.7121875 2.09765625 76.71484375 C4.37703824 76.72741059 4.37703824 76.72741059 6.33984375 75.58203125 C4.98447761 71.98708392 3.33207901 68.7468474 1.46484375 65.39453125 C-4.02159226 54.5023421 -6.62561747 41.75757001 -5.66015625 29.58203125 C-5.21027344 30.61199219 -4.76039063 31.64195312 -4.296875 32.703125 C6.6036726 57.52083527 6.6036726 57.52083527 26.40234375 74.70703125 C31.62784582 76.23720815 36.17743915 75.73866627 41.02734375 73.14453125 C47.1986214 66.30608845 49.76878167 57.03361977 52.66552734 48.44702148 C54.53461368 43.09853369 56.84619579 39.05078986 60.33984375 34.58203125 C72.75113473 37.32747567 84.59808932 53.1916259 92.6015625 62.625 C95.55344209 65.94835207 98.76476769 69.01390475 101.92578125 72.13671875 C104.02917974 74.2673457 106.0151462 76.43683548 107.96484375 78.70703125 C116.39737801 88.71717182 116.39737801 88.71717182 127.33984375 95.58203125 C130.72177065 95.55165291 130.72177065 95.55165291 133.33984375 94.58203125 C132.03138459 84.68792909 123.01177082 75.70711185 117.03515625 68.0625 C115.13972344 65.63218972 113.28672177 63.17549165 111.45703125 60.6953125 C105.20726584 52.22580283 98.70536203 44.0942722 91.74609375 36.19628906 C90.76539065 35.07052362 89.79755554 33.93347432 88.83984375 32.78808594 C81.48600357 24.00590373 71.83618951 14.82364699 60.10546875 13.109375 C52.7606104 12.77936408 47.91015232 13.76346786 42.33984375 18.58203125 C41.7365625 19.05511719 41.13328125 19.52820313 40.51171875 20.015625 C32.05492797 27.38774044 28.76240633 38.97800734 26.33984375 49.58203125 C25.80617188 48.41929687 25.2725 47.2565625 24.72265625 46.05859375 C14.44018106 20.45065741 14.44018106 20.45065741 -4.0546875 1.36328125 C-11.32620886 -0.81708497 -18.87531146 -0.98061507 -24.328125 4.77734375 Z " fill="#DD6C49" transform="translate(375.66015625,113.41796875)"/>
<path d="M0 0 C0.66 0 1.32 0 2 0 C2.22026855 0.53665283 2.44053711 1.07330566 2.66748047 1.6262207 C7.20889908 12.62252453 11.99430157 23.34615743 17.72412109 33.78051758 C19.91034169 37.78535244 21.72099128 41.58986612 23 46 C22.44957031 46.28230469 21.89914062 46.56460938 21.33203125 46.85546875 C12.69633618 51.42100676 4.46462761 56.60880317 -3.81640625 61.78125 C-8.84087531 64.91616697 -13.91155221 67.97026845 -19 71 C-16.47177583 61.54846407 -13.73632406 52.1594716 -10.98217773 42.77197266 C-5.61451496 24.54605748 -5.61451496 24.54605748 -1.25 6.0625 C-1.00765625 4.89847656 -0.7653125 3.73445313 -0.515625 2.53515625 C-0.34546875 1.69855469 -0.1753125 0.86195312 0 0 Z M2 11 C0.58944363 15.12647901 -0.66085848 19.2647575 -1.8046875 23.47265625 C-2.30935547 25.31827148 -2.30935547 25.31827148 -2.82421875 27.20117188 C-3.51773492 29.74782775 -4.20998858 32.29482491 -4.90234375 34.84179688 C-6.88478842 42.08940355 -8.99142143 49.25911077 -11.36767578 56.38842773 C-12.26564588 59.08738804 -12.26564588 59.08738804 -11 62 C-7.02391112 59.64505182 -3.05490356 57.27874942 0.90795898 54.90161133 C2.25730525 54.09440587 3.6085394 53.29034763 4.96166992 52.48950195 C6.90527038 51.33845145 8.84182163 50.17628872 10.77734375 49.01171875 C11.38464828 48.65534836 11.99195282 48.29897797 12.61766052 47.93180847 C16.24307825 45.77852361 16.24307825 45.77852361 18 42 C16.85443667 38.99528975 16.85443667 38.99528975 15.10546875 35.6875 C14.79805252 35.07737061 14.49063629 34.46724121 14.17390442 33.83862305 C13.18769013 31.88756035 12.18759597 29.94397708 11.1875 28 C10.52451955 26.69054483 9.8623997 25.38065356 9.20117188 24.0703125 C5.85835455 17.38831906 5.85835455 17.38831906 2 11 Z " fill="#E1714D" transform="translate(282,110)"/>
<path d="M0 0 C-0.87398438 0.57105469 -1.74796875 1.14210938 -2.6484375 1.73046875 C-9.82590733 6.45204517 -16.8735267 11.3088817 -23.8125 16.375 C-63.15377475 44.99145696 -63.15377475 44.99145696 -81 44 C-78.28770718 41.28770718 -75.05063961 40.25168204 -71.5625 38.8125 C-60.97258096 34.28892529 -52.04911493 28.07955544 -42.82788086 21.26757812 C-8.32348987 -4.16174494 -8.32348987 -4.16174494 0 0 Z " fill="#DFB484" transform="translate(220,276)"/>
<path d="M0 0 C1.33484733 0.01060455 2.66964462 0.03718888 4.00390625 0.078125 C5.32261719 0.09359375 6.64132812 0.1090625 8 0.125 C10.7346401 0.28075168 12.97898776 0.50756261 15.56640625 1.328125 C15.56640625 1.988125 15.56640625 2.648125 15.56640625 3.328125 C16.55640625 3.658125 17.54640625 3.988125 18.56640625 4.328125 C10.31640625 3.998125 2.06640625 3.668125 -6.43359375 3.328125 C-3.43359375 0.328125 -3.43359375 0.328125 0 0 Z " fill="#504A3E" transform="translate(461.43359375,216.671875)"/>
<path d="M0 0 C0.85739516 3.1546906 1.18782371 4.89338414 0 8 C-2.33843193 12.03177918 -3.88998613 14.00885983 -8 16 C-9.48047145 17.117083 -10.93790839 18.26513579 -12.375 19.4375 C-15.80077967 22.15547395 -18.99946412 24.25617667 -23 26 C-21.62150048 21.86450143 -18.70893189 20.41863478 -15.25 18.0625 C-6.38448159 12.67480496 -6.38448159 12.67480496 -1.1875 4.25 C-0.95417969 3.45078125 -0.72085938 2.6515625 -0.48046875 1.828125 C-0.24263672 0.92320312 -0.24263672 0.92320312 0 0 Z " fill="#F5CFA3" transform="translate(238,191)"/>
<path d="M0 0 C-2.1825186 1.13167631 -4.32455112 2.12363852 -6.625 3 C-9.13076767 3.87923641 -9.13076767 3.87923641 -11 6 C-11.38403123 7.94151362 -11.38403123 7.94151362 -11.5 10.0625 C-11.665 11.361875 -11.83 12.66125 -12 14 C-12.99 14.495 -12.99 14.495 -14 15 C-14.6271777 7.00348432 -14.6271777 7.00348432 -12.125 3 C-8.17322183 -0.71932063 -5.2313468 -0.08437656 0 0 Z " fill="#F6D4AB" transform="translate(282,59)"/>
<path d="M0 0 C0.33 0.99 0.66 1.98 1 3 C1.99 3.33 2.98 3.66 4 4 C1 6 1 6 -1.0625 5.625 C-1.701875 5.41875 -2.34125 5.2125 -3 5 C-3.66 5 -4.32 5 -5 5 C-5 5.66 -5 6.32 -5 7 C-6.32 6.67 -7.64 6.34 -9 6 C-6.11964908 3.75972706 -3.15133488 1.83827868 0 0 Z " fill="#D8B17F" transform="translate(160,309)"/>
<path d="M0 0 C1.32 0.66 2.64 1.32 4 2 C4 2.66 4 3.32 4 4 C1.47524538 5.26237731 -0.31200466 5.09856404 -3.125 5.0625 C-4.03507812 5.05347656 -4.94515625 5.04445312 -5.8828125 5.03515625 C-6.58148438 5.02355469 -7.28015625 5.01195312 -8 5 C-8 4.34 -8 3.68 -8 3 C-5.36 2.67 -2.72 2.34 0 2 C0 1.34 0 0.68 0 0 Z " fill="#6A6D44" transform="translate(378,185)"/>
<path d="M0 0 C0.99 0.33 1.98 0.66 3 1 C2.67 1.99 2.34 2.98 2 4 C2 4.99 2 5.98 2 7 C0.02 7.99 0.02 7.99 -2 9 C-2.125 5.625 -2.125 5.625 -2 2 C-1.34 1.34 -0.68 0.68 0 0 Z " fill="#E2B987" transform="translate(193,286)"/>
<path d="M0 0 C0.66 0.33 1.32 0.66 2 1 C0.54821438 4.38749978 -1.36940603 6.45161209 -4 9 C-4.66 9.99 -5.32 10.98 -6 12 C-5.59791618 6.37082652 -3.71069698 3.99613521 0 0 Z " fill="#69673C" transform="translate(354,116)"/>
<path d="M0 0 C0 0.66 0 1.32 0 2 C-1.26839526 2.50615298 -2.53983102 3.00469099 -3.8125 3.5 C-4.87404297 3.91765625 -4.87404297 3.91765625 -5.95703125 4.34375 C-8 5 -8 5 -11 5 C-11 4.01 -11 3.02 -11 2 C-8.525 2.495 -8.525 2.495 -6 3 C-6 2.34 -6 1.68 -6 1 C-4 0 -4 0 0 0 Z " fill="#E8BE87" transform="translate(161,313)"/>
<path d="M0 0 C0.66 0.33 1.32 0.66 2 1 C1.67 1.33 1.34 1.66 1 2 C1.66 2.66 2.32 3.32 3 4 C0.09399739 5.25664978 -1.79604584 6 -5 6 C-3.63016497 2.83884224 -3.0109362 2.0072908 0 0 Z " fill="#43372A" transform="translate(97,313)"/>
<path d="M0 0 C-1.78614318 1.03046722 -3.57910018 2.04913236 -5.375 3.0625 C-6.87160156 3.91521484 -6.87160156 3.91521484 -8.3984375 4.78515625 C-9.25695312 5.18605469 -10.11546875 5.58695312 -11 6 C-11.66 5.67 -12.32 5.34 -13 5 C-5.34782609 -1.7826087 -5.34782609 -1.7826087 0 0 Z " fill="#3F3327" transform="translate(236,279)"/>
<path d="M0 0 C0.99 0.33 1.98 0.66 3 1 C3 2.32 3 3.64 3 5 C1.02 5.33 -0.96 5.66 -3 6 C-3.33 5.01 -3.66 4.02 -4 3 C-2.68 3.33 -1.36 3.66 0 4 C0 2.68 0 1.36 0 0 Z " fill="#796E47" transform="translate(506,203)"/>
<path d="M0 0 C4.24822374 0.47202486 6.19989709 2.96655518 9 6 C8.67 6.66 8.34 7.32 8 8 C5.95880212 6.38405168 3.95927063 4.7143618 2 3 C2 2.34 2 1.68 2 1 C1.34 0.67 0.68 0.34 0 0 Z " fill="#696B40" transform="translate(371,116)"/>
<path d="M0 0 C0.66 0.33 1.32 0.66 2 1 C1.67 3.31 1.34 5.62 1 8 C0.01 8 -0.98 8 -2 8 C-1.47731534 5.23723823 -0.89130413 2.6739124 0 0 Z " fill="#D8AA7C" transform="translate(190,288)"/>
<path d="M0 0 C0 0.99 0 1.98 0 3 C-2.63259597 5.41914224 -4.59428799 6.86476266 -8 8 C-6.88333826 4.65001479 -6.25305075 4.20659778 -3.4375 2.3125 C-2.79683594 1.87550781 -2.15617188 1.43851563 -1.49609375 0.98828125 C-1.00238281 0.66214844 -0.50867188 0.33601562 0 0 Z " fill="#F2C598" transform="translate(223,209)"/>
<path d="M0 0 C2.6855594 2.6855594 3.06049974 5.37621328 4 9 C3.01 8.67 2.02 8.34 1 8 C-0.35439668 5.29120665 -0.06501451 2.99066732 0 0 Z " fill="#6B6B40" transform="translate(373,172)"/>
</svg>
